<?xml version="1.0" encoding="utf-8"?>
<!-- Generator: Adobe Illustrator 16.0.0, SVG Export Plug-In . SVG Version: 6.00 Build 0)  -->
<!DOCTYPE svg PUBLIC "-//W3C//DTD SVG 1.1//EN" "http://www.w3.org/Graphics/SVG/1.1/DTD/svg11.dtd">
<svg version="1.1" id="Layer_1" xmlns="http://www.w3.org/2000/svg" xmlns:xlink="http://www.w3.org/1999/xlink" x="0px" y="0px"
	 width="400px" height="400px" viewBox="0 0 400 400" enable-background="new 0 0 400 400" xml:space="preserve">
<g id="Layer_1_1_">
	
		<linearGradient id="SVGID_1_" gradientUnits="userSpaceOnUse" x1="276.4336" y1="-126.6284" x2="331.7148" y2="-126.6284" gradientTransform="matrix(1 0 0 -1 -106 205)">
		<stop  offset="0" style="stop-color:#5080B1"/>
		<stop  offset="0.1178" style="stop-color:#477DAE"/>
		<stop  offset="0.3137" style="stop-color:#2D73A7"/>
		<stop  offset="0.5621" style="stop-color:#04649C"/>
		<stop  offset="0.5843" style="stop-color:#00639B"/>
		<stop  offset="1" style="stop-color:#004E8C"/>
	</linearGradient>
	<path fill="url(#SVGID_1_)" d="M170.434,330.951c-0.018,7.705,3.375,15.334,9.198,20.316c11.067,9.471,28.372,8.682,38.655-1.68
		c5.033-5.072,7.453-12.104,7.428-18.463l0,0c0.025-6.359-2.395-12.385-7.428-17.457c-10.283-10.361-27.586-11.148-38.655-1.68
		C173.808,316.973,170.416,323.246,170.434,330.951"/>
	
		<linearGradient id="SVGID_2_" gradientUnits="userSpaceOnUse" x1="220.833" y1="-63.5244" x2="387.3164" y2="-63.5244" gradientTransform="matrix(1 0 0 -1 -106 205)">
		<stop  offset="0" style="stop-color:#5080B1"/>
		<stop  offset="0.1178" style="stop-color:#477DAE"/>
		<stop  offset="0.3137" style="stop-color:#2D73A7"/>
		<stop  offset="0.5621" style="stop-color:#04649C"/>
		<stop  offset="0.5843" style="stop-color:#00639B"/>
		<stop  offset="1" style="stop-color:#004E8C"/>
	</linearGradient>
	<path fill="url(#SVGID_2_)" d="M281.316,272.732c-0.41-0.451-0.621-0.717-0.861-0.947c-11.986-11.621-24.955-21.834-39.857-29.258
		c-23.188-11.549-47.115-14.316-71.887-6.141c-15.468,5.105-28.922,13.828-41.111,24.693c-4.35,3.875-8.459,8.033-12.767,12.146
		c10.906,10.713,21.515,21.133,32.269,31.695c0.48-0.59,0.758-0.986,1.088-1.33c6.52-6.775,13.494-12.971,21.488-17.887
		c13.332-8.199,27.382-10.971,42.468-5.996c9.434,3.113,17.826,8.219,25.588,14.428c4.455,3.564,8.684,7.428,13.098,11.227
		C260.93,294.555,271.057,283.711,281.316,272.732z"/>
	
		<linearGradient id="SVGID_3_" gradientUnits="userSpaceOnUse" x1="220.832" y1="-63.5259" x2="387.3164" y2="-63.5259" gradientTransform="matrix(1 0 0 -1 -106 205)">
		<stop  offset="0" style="stop-color:#5080B1"/>
		<stop  offset="0.1178" style="stop-color:#477DAE"/>
		<stop  offset="0.3137" style="stop-color:#2D73A7"/>
		<stop  offset="0.5621" style="stop-color:#04649C"/>
		<stop  offset="0.5843" style="stop-color:#00639B"/>
		<stop  offset="1" style="stop-color:#004E8C"/>
	</linearGradient>
	<path fill="url(#SVGID_3_)" d="M281.316,272.732c-10.26,10.979-20.387,21.822-30.484,32.633c-4.414-3.799-8.643-7.662-13.1-11.229
		c-7.762-6.209-16.152-11.313-25.588-14.428c-15.085-4.975-29.135-2.203-42.467,5.996c-7.994,4.916-14.968,11.111-21.488,17.887
		c-0.331,0.346-0.608,0.74-1.088,1.33c-10.753-10.563-21.363-20.98-32.269-31.695c4.308-4.111,8.417-8.27,12.767-12.145
		c12.189-10.865,25.644-19.588,41.111-24.693c24.771-8.178,48.698-5.41,71.886,6.139c14.902,7.424,27.686,17.424,39.672,29.045
		C280.508,271.803,280.906,272.279,281.316,272.732z"/>
	
		<linearGradient id="SVGID_4_" gradientUnits="userSpaceOnUse" x1="164.7671" y1="2.8149" x2="446.9531" y2="2.8149" gradientTransform="matrix(1 0 0 -1 -106 205)">
		<stop  offset="0" style="stop-color:#5080B1"/>
		<stop  offset="0.1178" style="stop-color:#477DAE"/>
		<stop  offset="0.3137" style="stop-color:#2D73A7"/>
		<stop  offset="0.5621" style="stop-color:#04649C"/>
		<stop  offset="0.5843" style="stop-color:#00639B"/>
		<stop  offset="1" style="stop-color:#004E8C"/>
	</linearGradient>
	<path fill="url(#SVGID_4_)" d="M310.41,253.746c9.916-10.613,20.074-21.486,30.543-32.695c-0.662-0.463-1.145-0.734-1.553-1.096
		c-9.275-8.152-18.27-16.676-27.873-24.397c-19.563-15.726-40.879-28.35-64.566-36.453c-23.164-7.925-46.842-10.503-71.035-6.857
		c-20.581,3.101-39.736,10.481-57.792,21.005c-18.014,10.501-34.111,23.588-49.051,38.241c-3.444,3.377-6.815,6.83-10.316,10.348
		c10.905,10.705,21.514,21.119,32.298,31.705c0.458-0.592,0.724-1,1.051-1.348c14.02-14.83,29.185-28.201,46.667-38.615
		c16.204-9.65,33.464-16.006,52.277-17.227c15.217-0.985,29.973,1.556,44.313,6.795c17.391,6.355,33.143,15.803,47.674,27.34
		C292.324,237.857,301.139,245.832,310.41,253.746z"/>
	
		<linearGradient id="SVGID_5_" gradientUnits="userSpaceOnUse" x1="164.7671" y1="2.8154" x2="446.9531" y2="2.8154" gradientTransform="matrix(1 0 0 -1 -106 205)">
		<stop  offset="0" style="stop-color:#5080B1"/>
		<stop  offset="0.1178" style="stop-color:#477DAE"/>
		<stop  offset="0.3137" style="stop-color:#2D73A7"/>
		<stop  offset="0.5621" style="stop-color:#04649C"/>
		<stop  offset="0.5843" style="stop-color:#00639B"/>
		<stop  offset="1" style="stop-color:#004E8C"/>
	</linearGradient>
	<path fill="url(#SVGID_5_)" d="M310.41,253.746c-9.271-7.914-18.086-15.889-27.363-23.254
		c-14.531-11.539-30.283-20.984-47.674-27.34c-14.34-5.241-29.096-7.782-44.313-6.795c-18.813,1.219-36.074,7.575-52.277,17.227
		c-17.482,10.414-32.647,23.785-46.667,38.615c-0.327,0.346-0.592,0.754-1.051,1.346c-10.784-10.586-21.394-21-32.298-31.703
		c3.501-3.518,6.873-6.973,10.316-10.35c14.94-14.652,31.037-27.739,49.051-38.24c18.056-10.523,37.211-17.904,57.792-21.005
		c24.192-3.646,47.871-1.067,71.035,6.857c23.688,8.104,45.004,20.728,64.566,36.453c9.604,7.722,18.598,16.246,27.873,24.398
		c0.408,0.359,0.891,0.631,1.553,1.094C330.484,232.26,320.326,243.133,310.41,253.746z"/>
	
		<linearGradient id="SVGID_6_" gradientUnits="userSpaceOnUse" x1="113.2861" y1="70.3013" x2="502.2871" y2="70.3013" gradientTransform="matrix(1 0 0 -1 -106 205)">
		<stop  offset="0" style="stop-color:#5080B1"/>
		<stop  offset="0.1178" style="stop-color:#477DAE"/>
		<stop  offset="0.3137" style="stop-color:#2D73A7"/>
		<stop  offset="0.5621" style="stop-color:#04649C"/>
		<stop  offset="0.5843" style="stop-color:#00639B"/>
		<stop  offset="1" style="stop-color:#004E8C"/>
	</linearGradient>
	<path fill="url(#SVGID_6_)" d="M205.82,69.212c2.814,0.261,5.625,0.563,8.441,0.777c22.584,1.719,44.256,7.39,65.23,15.978
		c29.453,12.06,56.133,29.011,80.744,49.366c11.766,9.729,22.875,20.292,34.285,30.472c0.504,0.452,1.053,0.856,1.766,1.434
		c-10.363,11.098-20.486,21.934-30.771,32.946c-0.992-0.91-1.947-1.744-2.855-2.627c-14.127-13.756-28.992-26.595-44.895-38.144
		c-20.258-14.711-41.76-27.004-65.352-35.178c-20.412-7.071-41.367-10.396-62.909-9.173c-20.834,1.184-40.664,6.638-59.675,15.374
		c-23.75,10.914-44.874,25.959-64.311,43.551c-8.956,8.106-17.473,16.724-26.349,25.263c-0.537-0.508-1.325-1.23-2.089-1.98
		c-9.564-9.393-19.123-18.791-28.69-28.178c-0.328-0.321-0.734-0.558-1.105-0.833c0-0.139,0-0.277,0-0.416
		c0.601-0.526,1.247-1.006,1.795-1.585c24.995-26.442,52.247-49.951,83.835-67.773c27.991-15.792,57.683-26.019,89.692-28.528
		c2.608-0.204,5.211-0.495,7.816-0.746C195.557,69.212,200.689,69.212,205.82,69.212z"/>
</g>
<g id="Layer_2">
</g>
</svg>
